<svg width="256" height="57" viewBox="0 0 256 57" fill="none" xmlns="http://www.w3.org/2000/svg">
    <path fill-rule="evenodd" clip-rule="evenodd" d="M31.6014 56.1199C27.4844 56.1199 24.1469 52.7823 24.1469 48.6653V18.2603C24.1469 14.1432 27.4844 10.8057 31.6014 10.8057C35.7185 10.8057 39.056 14.1433 39.056 18.2603V48.6653C39.056 52.7824 35.7185 56.1199 31.6014 56.1199Z" fill="#FD46E8"/>
    <path fill-rule="evenodd" clip-rule="evenodd" d="M7.62793 56.1199C3.51088 56.1199 0.173362 52.7824 0.173362 48.6654V35.6889C0.173362 31.5718 3.51088 28.2343 7.62793 28.2343C11.745 28.2343 15.0825 31.5718 15.0825 35.6888V48.6654C15.0825 52.7824 11.745 56.1199 7.62793 56.1199Z" fill="#021717"/>
    <path fill-rule="evenodd" clip-rule="evenodd" d="M74.8308 56.1199C70.7138 56.1199 67.3762 52.7823 67.3762 48.6653V11.2889C67.3762 7.17185 70.7138 3.83432 74.8308 3.83432C78.9479 3.83432 82.2854 7.17184 82.2854 11.2889V48.6653C82.2854 52.7823 78.9479 56.1199 74.8308 56.1199Z" fill="#FD46E8"/>
    <path fill-rule="evenodd" clip-rule="evenodd" d="M50.8573 56.1199C46.7402 56.1199 43.4027 52.7824 43.4027 48.6653V18.2603C43.4027 14.1433 46.7402 10.8058 50.8573 10.8058C54.9743 10.8058 58.3118 14.1433 58.3118 18.2603V48.6653C58.3118 52.7824 54.9743 56.1199 50.8573 56.1199Z" fill="#021717"/>
    <path fill-rule="evenodd" clip-rule="evenodd" d="M118.06 56.1199C113.943 56.1199 110.606 52.7823 110.606 48.6653V21.746C110.606 17.6289 113.943 14.2914 118.06 14.2914C122.177 14.2914 125.515 17.6289 125.515 21.746V48.6653C125.515 52.7823 122.177 56.1199 118.06 56.1199Z" fill="#FD46E8"/>
    <path fill-rule="evenodd" clip-rule="evenodd" d="M94.0866 56.1199C89.9696 56.1199 86.6321 52.7823 86.6321 48.6653V32.2031C86.6321 28.0861 89.9696 24.7485 94.0866 24.7485C98.2037 24.7485 101.541 28.0861 101.541 32.2031V48.6653C101.541 52.7823 98.2037 56.1199 94.0866 56.1199Z" fill="#021717"/>
    <path fill-rule="evenodd" clip-rule="evenodd" d="M161.29 56.1198C157.173 56.1198 153.835 52.7823 153.835 48.6653V14.7746C153.835 10.6575 157.173 7.31999 161.29 7.31999C165.407 7.31999 168.744 10.6575 168.744 14.7746V48.6653C168.744 52.7823 165.407 56.1198 161.29 56.1198Z" fill="#FD46E8"/>
    <path fill-rule="evenodd" clip-rule="evenodd" d="M137.316 56.1199C133.199 56.1199 129.862 52.7824 129.862 48.6653V35.6888C129.862 31.5718 133.199 28.2343 137.316 28.2343C141.433 28.2343 144.771 31.5718 144.771 35.6888V48.6653C144.771 52.7824 141.433 56.1199 137.316 56.1199Z" fill="#021717"/>
    <path fill-rule="evenodd" clip-rule="evenodd" d="M204.519 56.1198C200.402 56.1198 197.065 52.7823 197.065 48.6653V7.45457C197.065 3.33752 200.402 0 204.519 0C208.637 0 211.974 3.33753 211.974 7.45457V48.6653C211.974 52.7823 208.637 56.1198 204.519 56.1198Z" fill="#FD46E8"/>
    <path fill-rule="evenodd" clip-rule="evenodd" d="M180.546 56.1198C176.429 56.1198 173.091 52.7823 173.091 48.6653V25.2317C173.091 21.1147 176.429 17.7771 180.546 17.7771C184.663 17.7771 188 21.1147 188 25.2317V48.6653C188 52.7823 184.663 56.1198 180.546 56.1198Z" fill="#021717"/>
    <path fill-rule="evenodd" clip-rule="evenodd" d="M247.749 56.1198C243.536 56.1198 240.121 52.7047 240.121 48.4919L240.121 7.62794C240.121 3.41514 243.536 0 247.749 0C251.961 0 255.377 3.41515 255.377 7.62794V48.4919C255.377 52.7047 251.961 56.1198 247.749 56.1198Z" fill="#FD46E8"/>
    <path fill-rule="evenodd" clip-rule="evenodd" d="M223.775 56.1199C219.563 56.1199 216.147 52.7047 216.147 48.4919L216.147 35.8622C216.147 31.6494 219.563 28.2342 223.775 28.2342C227.988 28.2342 231.403 31.6494 231.403 35.8622V48.4919C231.403 52.7047 227.988 56.1199 223.775 56.1199Z" fill="#021717"/>
</svg>
